# xmcd
#
# Track frame offsets:
#	150
#	11885
#	23847
#	36360
#	49265
#	61345
#	74050
#	86065
#	102515
#	122170
#	133022
#	142025
#	154897
#	172200
#	189142
#	207010
#	220032
#	236152
#	246730
#	263785
#
# Disc length: 3645 seconds
#
# Revision: 0
# Processed by: cddbd v1.5.2PL0 Copyright (c) Steve Scherf et al.
# Submitted via: dBpowerAMP V4.0
#
DISCID=3a0e3b14
DTITLE=Various Artist - The All Time Greatest Country Songs (from the 60's, 70's, 80's and 90's)
DYEAR=1999
DGENRE=Country
TTITLE0=Johnny Cash - Ring Of Fire
TTITLE1=Tammy Wynette - Stand By Your Man
TTITLE2=Roy Orbison - Crying
TTITLE3=Lynn Anderson - Rose Garden
TTITLE4=Charlie Rich - The Most Beautiful Girl In The World
TTITLE5=Patsy Cline - I Fall To Pieces
TTITLE6=Glen Campbell - By The Time I Get To Phoenix
TTITLE7=Dolly Parton - Jolene
TTITLE8=Marty Robbins - El Paso
TTITLE9=Roger Milller - King Of The Road
TTITLE10=Everly Brothers - Crying In The Rain
TTITLE11=Olivia Newton John - If Not For You
TTITLE12=Dr Hook - Sylvia's Mother
TTITLE13=Judy Collins - Someday Soon
TTITLE14=Billy Swan - I Can Help
TTITLE15=Dolly Parton, Tammy Wynette, Loretta Lynn - Wings Of A Dove
TTITLE16=Nitty Gritty Dirt Band - Mr Bojangles
TTITLE17=The Statler Brothers - Flowers On The Wall
TTITLE18=Gordon Lightfoot - If You Could Read My Mind
TTITLE19=Frankie Laine - I Believe
EXTD=
EXTT0=
EXTT1=
EXTT2=
EXTT3=
EXTT4=
EXTT5=
EXTT6=
EXTT7=
EXTT8=
EXTT9=
EXTT10=
EXTT11=
EXTT12=
EXTT13=
EXTT14=
EXTT15=
EXTT16=
EXTT17=
EXTT18=
EXTT19=
PLAYORDER=
